HIERARCHY
ROOT Hips
{
	OFFSET 0.000000 0.000000 0.000000
	CHANNELS 6 Xposition Yposition Zposition Zrotation Yrotation Xrotation 
	JOINT LHipJoint
	{
		OFFSET 0.000000 0.000000 0.000000
		CHANNELS 3 Zrotation Yrotation Xrotation
		JOINT LeftUpLeg
		{
			OFFSET 1.363060 -1.794630 0.839290
			CHANNELS 3 Zrotation Yrotation Xrotation
			JOINT LeftLeg
			{
				OFFSET 2.448110 -6.726130 0.000000
				CHANNELS 3 Zrotation Yrotation Xrotation
				JOINT LeftFoot
				{
					OFFSET 2.562200 -7.039590 0.000000
					CHANNELS 3 Zrotation Yrotation Xrotation
					JOINT LeftToeBase
					{
						OFFSET 0.157640 -0.433110 2.322550
						CHANNELS 3 Zrotation Yrotation Xrotation
						End Site
						{
							OFFSET 0.000000 0.000000 0.000000
						}
					}
				}
			}
		}
	}
	JOINT RHipJoint
	{
		OFFSET 0.000000 0.000000 0.000000
		CHANNELS 3 Zrotation Yrotation Xrotation
		JOINT RightUpLeg
		{
			OFFSET -1.305520 -1.794630 0.839290
			CHANNELS 3 Zrotation Yrotation Xrotation
			JOINT RightLeg
			{
				OFFSET -2.542530 -6.985550 0.000000
				CHANNELS 3 Zrotation Yrotation Xrotation
				JOINT RightFoot
				{
					OFFSET -2.568260 -7.056230 0.000000
					CHANNELS 3 Zrotation Yrotation Xrotation
					JOINT RightToeBase
					{
						OFFSET -0.164730 -0.452590 2.363150
						CHANNELS 3 Zrotation Yrotation Xrotation
						End Site
						{
							OFFSET 0.000000 0.000000 0.000000
						}
					}
				}
			}
		}
	}
	JOINT LowerBack
	{
		OFFSET 0.000000 0.000000 0.000000
		CHANNELS 3 Zrotation Yrotation Xrotation
		JOINT Spine
		{
			OFFSET 0.028270 2.035590 -0.193380
			CHANNELS 3 Zrotation Yrotation Xrotation
			JOINT Spine1
			{
				OFFSET 0.056720 2.048850 -0.042750
				CHANNELS 3 Zrotation Yrotation Xrotation
				JOINT Neck
				{
					OFFSET 0.000000 0.000000 0.000000
					CHANNELS 3 Zrotation Yrotation Xrotation
					JOINT Neck1
					{
						OFFSET -0.054170 1.746240 0.172020
						CHANNELS 3 Zrotation Yrotation Xrotation
						JOINT Head
						{
							OFFSET 0.104070 1.761360 -0.123970
							CHANNELS 3 Zrotation Yrotation Xrotation
							End Site
							{
								OFFSET 0.000000 0.000000 0.000000
							}
						}
					}
				}
				JOINT LeftShoulder
				{
					OFFSET 0.000000 0.000000 0.000000
					CHANNELS 3 Zrotation Yrotation Xrotation
					JOINT LeftArm
					{
						OFFSET 3.362410 1.200890 -0.311210
						CHANNELS 3 Zrotation Yrotation Xrotation
						JOINT LeftForeArm
						{
							OFFSET 4.983000 -0.000000 -0.000000
							CHANNELS 3 Zrotation Yrotation Xrotation
							JOINT LeftHand
							{
								OFFSET 3.483560 -0.000000 -0.000000
								CHANNELS 3 Zrotation Yrotation Xrotation
								JOINT LeftFingerBase
								{
									OFFSET 0.000000 0.000000 0.000000
									CHANNELS 3 Zrotation Yrotation Xrotation
									JOINT LeftHandIndex1
									{
										OFFSET 0.715260 -0.000000 -0.000000
										CHANNELS 3 Zrotation Yrotation Xrotation
										End Site
										{
											OFFSET 0.000000 0.000000 0.000000
										}
									}
								}
								JOINT LThumb
								{
									OFFSET 0.000000 0.000000 0.000000
									CHANNELS 3 Zrotation Yrotation Xrotation
									End Site
									{
										OFFSET 0.000000 0.000000 0.000000
									}
								}
							}
						}
					}
				}
				JOINT RightShoulder
				{
					OFFSET 0.000000 0.000000 0.000000
					CHANNELS 3 Zrotation Yrotation Xrotation
					JOINT RightArm
					{
						OFFSET -3.136600 1.374050 -0.404650
						CHANNELS 3 Zrotation Yrotation Xrotation
						JOINT RightForeArm
						{
							OFFSET -5.241900 -0.000000 -0.000000
							CHANNELS 3 Zrotation Yrotation Xrotation
							JOINT RightHand
							{
								OFFSET -3.444170 -0.000000 -0.000000
								CHANNELS 3 Zrotation Yrotation Xrotation
								JOINT RightFingerBase
								{
									OFFSET 0.000000 0.000000 0.000000
									CHANNELS 3 Zrotation Yrotation Xrotation
									JOINT RightHandIndex1
									{
										OFFSET -0.622530 -0.000000 -0.000000
										CHANNELS 3 Zrotation Yrotation Xrotation
										End Site
										{
											OFFSET 0.000000 0.000000 0.000000
										}
									}
								}
								JOINT RThumb
								{
									OFFSET 0.000000 0.000000 0.000000
									CHANNELS 3 Zrotation Yrotation Xrotation
									End Site
									{
										OFFSET 0.000000 0.000000 0.000000
									}
								}
							}
						}
					}
				}
			}
		}
	}
}
MOTION
Frames: 4
Frame Time: 0.008333
5.301073 17.744451 10.049213 -150.314553 13.972664 -107.034616 5.279387 -2.612407 -7.918691 12.896428 3.594293 -50.776167 5.094622 13.751924 35.716456 -174.018376 7.433971 -4.434540 1.825800 -8.493500 -24.223200 -0.063958 2.198091 -1.095032 17.520652 14.393075 -34.067377 2.225686 -5.836090 14.939198 -0.505598 1.087336 5.360826 -0.025200 -1.024300 2.815800 -21.353407 2.740236 37.922850 -1.390674 -4.076635 -3.514393 7.090053 -1.603846 -3.638537 -7.048016 -3.294409 -29.066610 9.522845 -1.811472 0.885181 7.863600 0.522100 6.752100 0.940346 -12.020188 4.657374 16.736866 -11.315097 -65.410105 3.701438 -9.712702 -2.068228 -6.569828 -4.596502 -37.705162 35.275233 1.299130 0.637200 -7.125000 0.000000 0.000000 13.215200 30.748600 -4.712800 -2.144381 10.931221 4.740436 -11.036042 -4.420709 -49.590702 -19.667262 24.746189 -7.398895 2.932191 0.455143 1.470549 -41.341108 -10.672071 10.408700 7.125000 0.000000 0.000000 -15.940500 -44.377200 -0.251700 
5.592127 18.059994 10.396392 -153.175972 14.213219 -108.289383 5.105607 -2.942284 -7.926827 12.673088 2.719789 -49.073428 3.419898 12.311299 31.402175 -176.110028 1.724091 -6.886389 3.633700 -11.656300 -34.526700 -0.419051 2.602019 -1.437001 16.749552 15.781079 -37.382620 2.063885 -6.627456 16.296258 -0.549131 1.290145 4.525467 -0.029300 -1.105100 3.038100 -20.466420 2.534771 38.381092 -1.301833 -3.856216 -3.361802 7.546679 -1.538973 -3.267012 -7.645842 -4.181945 -28.498955 10.142573 -2.912603 0.730969 8.235700 0.060600 6.758600 1.099865 -12.016048 4.691144 17.353645 -11.695250 -65.073924 3.975063 -10.282790 -2.106218 -6.790674 -4.125292 -36.143762 36.122111 -0.224506 -1.012300 -7.125000 0.000000 0.000000 13.479800 28.414900 -5.583900 -2.170514 10.943233 4.829009 -8.403289 -3.219522 -49.008227 -19.781598 24.883318 -7.612457 2.846688 0.375981 0.368646 -40.906786 -11.130233 10.482800 7.125000 0.000000 0.000000 -15.500100 -44.658000 -0.134200 
5.910482 18.382215 10.716739 -156.069136 13.970425 -109.528674 4.883327 -3.200998 -7.961251 12.711783 1.805218 -47.135810 2.320596 10.723118 26.546853 -175.545984 2.060319 -11.652642 3.019800 -10.727000 -31.364600 -0.702809 2.899293 -1.689432 16.359607 16.710404 -40.234830 1.999328 -7.165855 17.024118 -0.427828 0.460728 2.850815 -0.000100 0.063300 -0.173900 -19.304456 2.364022 38.780070 -1.193781 -3.475938 -3.208006 7.967028 -1.411342 -2.945119 -8.235065 -5.019968 -27.794641 10.681069 -3.968219 0.509301 8.559100 -0.398100 6.718500 1.329813 -12.017083 4.759411 18.133665 -12.115678 -63.683284 4.324852 -11.020177 -2.146558 -6.781708 -3.950944 -36.082869 36.591243 -1.170416 -2.009500 -7.125000 0.000000 0.000000 13.557400 27.033900 -6.073500 -2.232412 10.951812 4.876621 -5.668394 -1.944022 -49.087924 -19.963739 25.074342 -7.830284 2.765678 0.299145 -0.708438 -40.760076 -11.821988 10.863700 7.125000 0.000000 0.000000 -15.376500 -45.285500 0.111000 
6.246178 18.692134 11.018807 -158.988573 13.422052 -110.719933 4.630185 -3.460462 -7.967701 12.958718 0.627780 -45.130828 1.412103 9.069084 21.683833 -174.610386 3.022428 -15.833456 2.147400 -9.166700 -26.318000 -1.027868 3.152817 -1.934774 16.669664 16.356159 -43.479527 1.848408 -7.994015 18.606879 -0.277459 -0.502931 1.125083 -0.218800 3.011100 -8.309600 -17.954344 2.178590 39.027326 -1.081364 -2.984526 -3.035752 8.318809 -1.235808 -2.503052 -8.866363 -5.906803 -27.330545 11.252702 -5.129118 0.392140 8.914400 -0.903500 6.840000 1.595975 -12.006942 4.847401 19.042617 -12.586805 -61.784061 4.909117 -12.052975 -2.241610 -6.540096 -4.025490 -37.604770 36.630277 -1.719390 -2.486000 -7.125000 0.000000 0.000000 13.364600 26.364300 -6.199000 -2.348419 10.932238 4.880740 -2.847417 -0.640759 -49.355027 -20.206288 25.325485 -8.057812 2.697536 0.233250 -1.733199 -41.071245 -12.865902 11.732200 7.125000 0.000000 0.000000 -15.775300 -46.445900 0.577000 
